<?xml version="1.0" encoding="UTF-8" standalone="no"?><!DOCTYPE svg PUBLIC "-//W3C//DTD SVG 1.1//EN" "http://www.w3.org/Graphics/SVG/1.1/DTD/svg11.dtd"><svg width="214px" viewBox="0 0 237 149" version="1.1" xmlns="http://www.w3.org/2000/svg" xmlns:xlink="http://www.w3.org/1999/xlink" xml:space="preserve" style="fill-rule:evenodd;clip-rule:evenodd;stroke-linejoin:round;stroke-miterlimit:1.41421;"><g id="_19143800"><path id="_19144232" d="M74.985,97.106l0,-24.745l-25.632,0l0,6.297l18.891,0l0,15.433c-2.128,1.714 -4.759,3.178 -7.893,4.39c-3.134,1.212 -6.475,1.818 -10.022,1.818c-3.784,0 -7.184,-0.65 -10.2,-1.951c-3.015,-1.301 -5.587,-3.104 -7.716,-5.41c-2.128,-2.306 -3.769,-5.041 -4.922,-8.204c-1.153,-3.164 -1.73,-6.607 -1.73,-10.333c0.001,-3.488 0.592,-6.784 1.774,-9.888c1.183,-3.105 2.809,-5.81 4.878,-8.116c2.07,-2.306 4.553,-4.139 7.45,-5.499c2.898,-1.36 6.061,-2.04 9.49,-2.04c2.188,0 4.183,0.178 5.987,0.533c1.804,0.354 3.459,0.842 4.966,1.463c1.509,0.621 2.912,1.36 4.213,2.217c1.301,0.857 2.543,1.818 3.725,2.883l4.524,-5.322c-1.538,-1.301 -3.119,-2.468 -4.745,-3.503c-1.626,-1.035 -3.371,-1.907 -5.233,-2.616c-1.862,-0.71 -3.873,-1.242 -6.031,-1.597c-2.158,-0.355 -4.538,-0.532 -7.14,-0.532c-4.67,0 -8.913,0.872 -12.727,2.617c-3.814,1.743 -7.08,4.094 -9.8,7.05c-2.72,2.957 -4.834,6.386 -6.342,10.289c-1.507,3.902 -2.261,7.982 -2.261,12.239c0,4.434 0.724,8.603 2.173,12.505c1.448,3.902 3.547,7.302 6.297,10.2c2.749,2.897 6.06,5.173 9.933,6.829c3.873,1.655 8.263,2.483 13.171,2.483c5.262,0 10.007,-0.931 14.235,-2.793c4.227,-1.863 7.79,-4.095 10.687,-6.697l0,0ZM137.246,63.226c0,-3.075 -0.547,-5.838 -1.641,-8.292c-1.094,-2.454 -2.661,-4.523 -4.701,-6.209c-2.04,-1.685 -4.494,-2.985 -7.361,-3.902c-2.868,-0.917 -6.046,-1.375 -9.534,-1.375l-23.237,0l0,62.084l7.006,0l0,-21.907l15.078,0c3.311,0 6.444,-0.428 9.401,-1.286c2.956,-0.857 5.543,-2.143 7.76,-3.858c2.218,-1.715 3.977,-3.843 5.277,-6.385c1.302,-2.543 1.952,-5.499 1.952,-8.87l0,0ZM130.151,63.492c0,2.07 -0.4,3.947 -1.198,5.632c-0.798,1.685 -1.951,3.134 -3.459,4.346c-1.508,1.212 -3.311,2.143 -5.41,2.794c-2.099,0.65 -4.42,0.975 -6.962,0.975l-15.344,0l0,-27.317l15.699,0c5.025,0 9.061,1.139 12.106,3.415c3.045,2.277 4.567,5.662 4.568,10.155l0,0Z" style="fill:#4d5457;"/><path id="_19144304" d="M2.359,2.722l206.339,0l0,25.656l-6.904,0l0,-18.751l-192.53,0l0,130.258l192.53,0l0,-18.752l6.904,0l0,25.656l-206.339,0l0,-144.067Z" style="fill:#0084c5;"/><path id="_19144208" d="M156.315,59.678l-6.829,0l0,45.853l6.829,0l0,-45.853Z" style="fill:#0084c5;"/><path id="_19144472" d="M190.32,45c-3.902,1.744 -7.243,4.095 -10.022,7.051c-2.779,2.956 -4.938,6.371 -6.475,10.244c-1.537,3.872 -2.306,7.967 -2.306,12.283c0.001,4.316 0.754,8.411 2.262,12.284c1.508,3.873 3.651,7.273 6.43,10.2c2.779,2.926 6.105,5.247 9.978,6.962c3.873,1.715 8.174,2.572 12.904,2.572c3.903,0 7.48,-0.591 10.732,-1.774c3.252,-1.183 6.208,-2.808 8.869,-4.878l8.16,7.45l4.789,-5.233l-8.248,-6.829c2.424,-2.838 4.271,-6.06 5.543,-9.667c1.271,-3.607 1.906,-7.361 1.906,-11.264c0.001,-4.316 -0.753,-8.411 -2.261,-12.283c-1.508,-3.874 -3.651,-7.273 -6.43,-10.2c-2.779,-2.927 -6.105,-5.247 -9.978,-6.962c-3.873,-1.715 -8.174,-2.572 -12.904,-2.572c-4.731,-0.001 -9.047,0.872 -12.949,2.616l0,0ZM193.291,50.854c2.986,-1.331 6.252,-1.996 9.8,-1.996c3.548,0 6.815,0.68 9.801,2.04c2.986,1.36 5.572,3.193 7.76,5.499c2.188,2.305 3.888,5.026 5.1,8.159c1.212,3.134 1.818,6.475 1.818,10.022c0,3.075 -0.473,5.987 -1.419,8.737c-0.946,2.749 -2.277,5.218 -3.991,7.405l-11.441,-10.377l-4.701,5.233l11.53,9.845c-1.892,1.478 -4.05,2.631 -6.474,3.459c-2.425,0.827 -5.026,1.241 -7.805,1.241c-3.548,0 -6.815,-0.68 -9.801,-2.039c-2.985,-1.36 -5.572,-3.193 -7.76,-5.499c-2.188,-2.307 -3.888,-5.026 -5.1,-8.16c-1.212,-3.134 -1.818,-6.474 -1.818,-10.022c0,-3.548 0.606,-6.873 1.818,-9.978c1.213,-3.104 2.883,-5.809 5.011,-8.115c2.129,-2.306 4.686,-4.124 7.672,-5.455l0,0Z" style="fill:#4d5457;"/><path id="_19143944" d="M152.944,42.118c2.082,0 3.769,1.688 3.769,3.77c0,2.081 -1.688,3.769 -3.769,3.769c-2.081,0 -3.769,-1.688 -3.769,-3.769c0,-2.083 1.687,-3.77 3.769,-3.77Z" style="fill:#0084c5;"/></g></svg>
